<svg xmlns="http://www.w3.org/2000/svg" width="1200" height="760" viewBox="0 0 1200 760"><defs><marker id="end-arrow" markerWidth="10" markerHeight="10" refX="9" refY="5" orient="auto"><path d="M 0 0 L 10 5 L 0 10 z" fill="context-stroke"/></marker><marker id="start-arrow" markerWidth="10" markerHeight="10" refX="1" refY="5" orient="auto-start-reverse"><path d="M 0 5 L 10 0 L 10 10 z" fill="context-stroke"/></marker><marker id="end-circle" markerWidth="10" markerHeight="10" refX="5" refY="5"><circle cx="5" cy="5" r="4" fill="context-stroke"/></marker><marker id="start-circle" markerWidth="10" markerHeight="10" refX="5" refY="5"><circle cx="5" cy="5" r="4" fill="context-stroke"/></marker><marker id="end-diamond" markerWidth="12" markerHeight="12" refX="10" refY="6" orient="auto"><path d="M 6 0 L 12 6 L 6 12 L 0 6 z" fill="context-stroke"/></marker><marker id="start-diamond" markerWidth="12" markerHeight="12" refX="2" refY="6" orient="auto"><path d="M 6 0 L 12 6 L 6 12 L 0 6 z" fill="context-stroke"/></marker></defs><rect x="470" y="80" width="260" height="90" rx="6" fill="#67d5b5" stroke="#173b46" stroke-width="4" opacity="1"/><text x="563.1162790697674" y="132.4415491274205" fill="#173b46" stroke="transparent" stroke-width="0" opacity="1" font-size="32" font-family="Arial, sans-serif">Start</text><rect x="430" y="250" width="340" height="110" rx="6" fill="#ffffff" stroke="#173b46" stroke-width="4" opacity="1"/><text x="510.4651162790698" y="311.27874731054266" fill="#173b46" stroke="transparent" stroke-width="0" opacity="1" font-size="32" font-family="Arial, sans-serif">Process step</text><rect x="470" y="450" width="260" height="90" rx="6" fill="#f4c95d" stroke="#5c4d18" stroke-width="4" opacity="1"/><text x="576.2790697674419" y="504.7671527611762" fill="#5c4d18" stroke="transparent" stroke-width="0" opacity="1" font-size="32" font-family="Arial, sans-serif">End</text><line x1="600" y1="170" x2="600" y2="250" fill="none" stroke="#173b46" stroke-width="5" opacity="1" stroke-linecap="round"/><line x1="600" y1="360" x2="600" y2="450" fill="none" stroke="#173b46" stroke-width="5" opacity="1" stroke-linecap="round"/></svg>