ISO-10303-21;
HEADER;
FILE_DESCRIPTION ( ( 'MyCAD export' ), '2;1' );
FILE_NAME ( 'cube', '2026-09-26T11:01:33.067Z', ( 'MyCAD' ), ( '' ), 'MyCAD', 'MyCAD', '' );
FILE_SCHEMA ( ( 'AUTOMOTIVE_DESIGN { 1 0 10303 214 1 1 1 1 }' ) );
ENDSEC;
DATA;
#0 = PRODUCT ( 'cube', 'cube', '', ( ) ) ;
#1 = CARTESIAN_POINT ( 'NONE', ( -20.000000, 0.000000, -20.000000 ) ) ;
#2 = VERTEX_POINT ( 'NONE', #1 ) ;
#3 = CARTESIAN_POINT ( 'NONE', ( 20.000000, 0.000000, -20.000000 ) ) ;
#4 = VERTEX_POINT ( 'NONE', #3 ) ;
#5 = CARTESIAN_POINT ( 'NONE', ( 20.000000, 0.000000, 20.000000 ) ) ;
#6 = VERTEX_POINT ( 'NONE', #5 ) ;
#9 = DIRECTION ( 'NONE', ( 1.000000, 0.000000, 0.000000 ) ) ;
#8 = VECTOR ( 'NONE', #9, 1.0 ) ;
#7 = LINE ( 'NONE', #1, #8 ) ;
#10 = EDGE_CURVE ( 'NONE', #2, #4, #7, .T. ) ;
#11 = ORIENTED_EDGE ( 'NONE', *, *, #10, .T. ) ;
#14 = DIRECTION ( 'NONE', ( 1.000000, 0.000000, 0.000000 ) ) ;
#13 = VECTOR ( 'NONE', #14, 1.0 ) ;
#12 = LINE ( 'NONE', #3, #13 ) ;
#15 = EDGE_CURVE ( 'NONE', #4, #6, #12, .T. ) ;
#16 = ORIENTED_EDGE ( 'NONE', *, *, #15, .T. ) ;
#19 = DIRECTION ( 'NONE', ( 1.000000, 0.000000, 0.000000 ) ) ;
#18 = VECTOR ( 'NONE', #19, 1.0 ) ;
#17 = LINE ( 'NONE', #5, #18 ) ;
#20 = EDGE_CURVE ( 'NONE', #6, #2, #17, .T. ) ;
#21 = ORIENTED_EDGE ( 'NONE', *, *, #20, .T. ) ;
#22 = EDGE_LOOP ( 'NONE', ( #11, #16, #21 ) ) ;
#23 = FACE_OUTER_BOUND ( 'NONE', #22, .T. ) ;
#25 = CARTESIAN_POINT ( 'NONE', ( -20.000000, 0.000000, -20.000000 ) ) ;
#26 = DIRECTION ( 'NONE', ( 0.000000, 0.000000, 1.000000 ) ) ;
#27 = DIRECTION ( 'NONE', ( 1.000000, 0.000000, 0.000000 ) ) ;
#24 = AXIS2_PLACEMENT_3D ( 'NONE', #25, #26, #27 ) ;
#28 = PLANE ( 'NONE', #24 ) ;
#29 = ADVANCED_FACE ( 'NONE', ( #23 ), #28, .T. ) ;
#30 = CARTESIAN_POINT ( 'NONE', ( -20.000000, 0.000000, -20.000000 ) ) ;
#31 = VERTEX_POINT ( 'NONE', #30 ) ;
#32 = CARTESIAN_POINT ( 'NONE', ( 20.000000, 0.000000, 20.000000 ) ) ;
#33 = VERTEX_POINT ( 'NONE', #32 ) ;
#34 = CARTESIAN_POINT ( 'NONE', ( -20.000000, 0.000000, 20.000000 ) ) ;
#35 = VERTEX_POINT ( 'NONE', #34 ) ;
#38 = DIRECTION ( 'NONE', ( 1.000000, 0.000000, 0.000000 ) ) ;
#37 = VECTOR ( 'NONE', #38, 1.0 ) ;
#36 = LINE ( 'NONE', #30, #37 ) ;
#39 = EDGE_CURVE ( 'NONE', #31, #33, #36, .T. ) ;
#40 = ORIENTED_EDGE ( 'NONE', *, *, #39, .T. ) ;
#43 = DIRECTION ( 'NONE', ( 1.000000, 0.000000, 0.000000 ) ) ;
#42 = VECTOR ( 'NONE', #43, 1.0 ) ;
#41 = LINE ( 'NONE', #32, #42 ) ;
#44 = EDGE_CURVE ( 'NONE', #33, #35, #41, .T. ) ;
#45 = ORIENTED_EDGE ( 'NONE', *, *, #44, .T. ) ;
#48 = DIRECTION ( 'NONE', ( 1.000000, 0.000000, 0.000000 ) ) ;
#47 = VECTOR ( 'NONE', #48, 1.0 ) ;
#46 = LINE ( 'NONE', #34, #47 ) ;
#49 = EDGE_CURVE ( 'NONE', #35, #31, #46, .T. ) ;
#50 = ORIENTED_EDGE ( 'NONE', *, *, #49, .T. ) ;
#51 = EDGE_LOOP ( 'NONE', ( #40, #45, #50 ) ) ;
#52 = FACE_OUTER_BOUND ( 'NONE', #51, .T. ) ;
#54 = CARTESIAN_POINT ( 'NONE', ( -20.000000, 0.000000, -20.000000 ) ) ;
#55 = DIRECTION ( 'NONE', ( 0.000000, 0.000000, 1.000000 ) ) ;
#56 = DIRECTION ( 'NONE', ( 1.000000, 0.000000, 0.000000 ) ) ;
#53 = AXIS2_PLACEMENT_3D ( 'NONE', #54, #55, #56 ) ;
#57 = PLANE ( 'NONE', #53 ) ;
#58 = ADVANCED_FACE ( 'NONE', ( #52 ), #57, .T. ) ;
#59 = CARTESIAN_POINT ( 'NONE', ( -20.000000, 40.000000, -20.000000 ) ) ;
#60 = VERTEX_POINT ( 'NONE', #59 ) ;
#61 = CARTESIAN_POINT ( 'NONE', ( -20.000000, 40.000000, 20.000000 ) ) ;
#62 = VERTEX_POINT ( 'NONE', #61 ) ;
#63 = CARTESIAN_POINT ( 'NONE', ( 20.000000, 40.000000, 20.000000 ) ) ;
#64 = VERTEX_POINT ( 'NONE', #63 ) ;
#67 = DIRECTION ( 'NONE', ( 1.000000, 0.000000, 0.000000 ) ) ;
#66 = VECTOR ( 'NONE', #67, 1.0 ) ;
#65 = LINE ( 'NONE', #59, #66 ) ;
#68 = EDGE_CURVE ( 'NONE', #60, #62, #65, .T. ) ;
#69 = ORIENTED_EDGE ( 'NONE', *, *, #68, .T. ) ;
#72 = DIRECTION ( 'NONE', ( 1.000000, 0.000000, 0.000000 ) ) ;
#71 = VECTOR ( 'NONE', #72, 1.0 ) ;
#70 = LINE ( 'NONE', #61, #71 ) ;
#73 = EDGE_CURVE ( 'NONE', #62, #64, #70, .T. ) ;
#74 = ORIENTED_EDGE ( 'NONE', *, *, #73, .T. ) ;
#77 = DIRECTION ( 'NONE', ( 1.000000, 0.000000, 0.000000 ) ) ;
#76 = VECTOR ( 'NONE', #77, 1.0 ) ;
#75 = LINE ( 'NONE', #63, #76 ) ;
#78 = EDGE_CURVE ( 'NONE', #64, #60, #75, .T. ) ;
#79 = ORIENTED_EDGE ( 'NONE', *, *, #78, .T. ) ;
#80 = EDGE_LOOP ( 'NONE', ( #69, #74, #79 ) ) ;
#81 = FACE_OUTER_BOUND ( 'NONE', #80, .T. ) ;
#83 = CARTESIAN_POINT ( 'NONE', ( -20.000000, 40.000000, -20.000000 ) ) ;
#84 = DIRECTION ( 'NONE', ( 0.000000, 0.000000, 1.000000 ) ) ;
#85 = DIRECTION ( 'NONE', ( 1.000000, 0.000000, 0.000000 ) ) ;
#82 = AXIS2_PLACEMENT_3D ( 'NONE', #83, #84, #85 ) ;
#86 = PLANE ( 'NONE', #82 ) ;
#87 = ADVANCED_FACE ( 'NONE', ( #81 ), #86, .T. ) ;
#88 = CARTESIAN_POINT ( 'NONE', ( -20.000000, 40.000000, -20.000000 ) ) ;
#89 = VERTEX_POINT ( 'NONE', #88 ) ;
#90 = CARTESIAN_POINT ( 'NONE', ( 20.000000, 40.000000, 20.000000 ) ) ;
#91 = VERTEX_POINT ( 'NONE', #90 ) ;
#92 = CARTESIAN_POINT ( 'NONE', ( 20.000000, 40.000000, -20.000000 ) ) ;
#93 = VERTEX_POINT ( 'NONE', #92 ) ;
#96 = DIRECTION ( 'NONE', ( 1.000000, 0.000000, 0.000000 ) ) ;
#95 = VECTOR ( 'NONE', #96, 1.0 ) ;
#94 = LINE ( 'NONE', #88, #95 ) ;
#97 = EDGE_CURVE ( 'NONE', #89, #91, #94, .T. ) ;
#98 = ORIENTED_EDGE ( 'NONE', *, *, #97, .T. ) ;
#101 = DIRECTION ( 'NONE', ( 1.000000, 0.000000, 0.000000 ) ) ;
#100 = VECTOR ( 'NONE', #101, 1.0 ) ;
#99 = LINE ( 'NONE', #90, #100 ) ;
#102 = EDGE_CURVE ( 'NONE', #91, #93, #99, .T. ) ;
#103 = ORIENTED_EDGE ( 'NONE', *, *, #102, .T. ) ;
#106 = DIRECTION ( 'NONE', ( 1.000000, 0.000000, 0.000000 ) ) ;
#105 = VECTOR ( 'NONE', #106, 1.0 ) ;
#104 = LINE ( 'NONE', #92, #105 ) ;
#107 = EDGE_CURVE ( 'NONE', #93, #89, #104, .T. ) ;
#108 = ORIENTED_EDGE ( 'NONE', *, *, #107, .T. ) ;
#109 = EDGE_LOOP ( 'NONE', ( #98, #103, #108 ) ) ;
#110 = FACE_OUTER_BOUND ( 'NONE', #109, .T. ) ;
#112 = CARTESIAN_POINT ( 'NONE', ( -20.000000, 40.000000, -20.000000 ) ) ;
#113 = DIRECTION ( 'NONE', ( 0.000000, 0.000000, 1.000000 ) ) ;
#114 = DIRECTION ( 'NONE', ( 1.000000, 0.000000, 0.000000 ) ) ;
#111 = AXIS2_PLACEMENT_3D ( 'NONE', #112, #113, #114 ) ;
#115 = PLANE ( 'NONE', #111 ) ;
#116 = ADVANCED_FACE ( 'NONE', ( #110 ), #115, .T. ) ;
#117 = CARTESIAN_POINT ( 'NONE', ( -20.000000, 0.000000, -20.000000 ) ) ;
#118 = VERTEX_POINT ( 'NONE', #117 ) ;
#119 = CARTESIAN_POINT ( 'NONE', ( -20.000000, 0.000000, 20.000000 ) ) ;
#120 = VERTEX_POINT ( 'NONE', #119 ) ;
#121 = CARTESIAN_POINT ( 'NONE', ( -20.000000, 40.000000, 20.000000 ) ) ;
#122 = VERTEX_POINT ( 'NONE', #121 ) ;
#125 = DIRECTION ( 'NONE', ( 1.000000, 0.000000, 0.000000 ) ) ;
#124 = VECTOR ( 'NONE', #125, 1.0 ) ;
#123 = LINE ( 'NONE', #117, #124 ) ;
#126 = EDGE_CURVE ( 'NONE', #118, #120, #123, .T. ) ;
#127 = ORIENTED_EDGE ( 'NONE', *, *, #126, .T. ) ;
#130 = DIRECTION ( 'NONE', ( 1.000000, 0.000000, 0.000000 ) ) ;
#129 = VECTOR ( 'NONE', #130, 1.0 ) ;
#128 = LINE ( 'NONE', #119, #129 ) ;
#131 = EDGE_CURVE ( 'NONE', #120, #122, #128, .T. ) ;
#132 = ORIENTED_EDGE ( 'NONE', *, *, #131, .T. ) ;
#135 = DIRECTION ( 'NONE', ( 1.000000, 0.000000, 0.000000 ) ) ;
#134 = VECTOR ( 'NONE', #135, 1.0 ) ;
#133 = LINE ( 'NONE', #121, #134 ) ;
#136 = EDGE_CURVE ( 'NONE', #122, #118, #133, .T. ) ;
#137 = ORIENTED_EDGE ( 'NONE', *, *, #136, .T. ) ;
#138 = EDGE_LOOP ( 'NONE', ( #127, #132, #137 ) ) ;
#139 = FACE_OUTER_BOUND ( 'NONE', #138, .T. ) ;
#141 = CARTESIAN_POINT ( 'NONE', ( -20.000000, 0.000000, -20.000000 ) ) ;
#142 = DIRECTION ( 'NONE', ( 0.000000, 0.000000, 1.000000 ) ) ;
#143 = DIRECTION ( 'NONE', ( 1.000000, 0.000000, 0.000000 ) ) ;
#140 = AXIS2_PLACEMENT_3D ( 'NONE', #141, #142, #143 ) ;
#144 = PLANE ( 'NONE', #140 ) ;
#145 = ADVANCED_FACE ( 'NONE', ( #139 ), #144, .T. ) ;
#146 = CARTESIAN_POINT ( 'NONE', ( -20.000000, 0.000000, -20.000000 ) ) ;
#147 = VERTEX_POINT ( 'NONE', #146 ) ;
#148 = CARTESIAN_POINT ( 'NONE', ( -20.000000, 40.000000, 20.000000 ) ) ;
#149 = VERTEX_POINT ( 'NONE', #148 ) ;
#150 = CARTESIAN_POINT ( 'NONE', ( -20.000000, 40.000000, -20.000000 ) ) ;
#151 = VERTEX_POINT ( 'NONE', #150 ) ;
#154 = DIRECTION ( 'NONE', ( 1.000000, 0.000000, 0.000000 ) ) ;
#153 = VECTOR ( 'NONE', #154, 1.0 ) ;
#152 = LINE ( 'NONE', #146, #153 ) ;
#155 = EDGE_CURVE ( 'NONE', #147, #149, #152, .T. ) ;
#156 = ORIENTED_EDGE ( 'NONE', *, *, #155, .T. ) ;
#159 = DIRECTION ( 'NONE', ( 1.000000, 0.000000, 0.000000 ) ) ;
#158 = VECTOR ( 'NONE', #159, 1.0 ) ;
#157 = LINE ( 'NONE', #148, #158 ) ;
#160 = EDGE_CURVE ( 'NONE', #149, #151, #157, .T. ) ;
#161 = ORIENTED_EDGE ( 'NONE', *, *, #160, .T. ) ;
#164 = DIRECTION ( 'NONE', ( 1.000000, 0.000000, 0.000000 ) ) ;
#163 = VECTOR ( 'NONE', #164, 1.0 ) ;
#162 = LINE ( 'NONE', #150, #163 ) ;
#165 = EDGE_CURVE ( 'NONE', #151, #147, #162, .T. ) ;
#166 = ORIENTED_EDGE ( 'NONE', *, *, #165, .T. ) ;
#167 = EDGE_LOOP ( 'NONE', ( #156, #161, #166 ) ) ;
#168 = FACE_OUTER_BOUND ( 'NONE', #167, .T. ) ;
#170 = CARTESIAN_POINT ( 'NONE', ( -20.000000, 0.000000, -20.000000 ) ) ;
#171 = DIRECTION ( 'NONE', ( 0.000000, 0.000000, 1.000000 ) ) ;
#172 = DIRECTION ( 'NONE', ( 1.000000, 0.000000, 0.000000 ) ) ;
#169 = AXIS2_PLACEMENT_3D ( 'NONE', #170, #171, #172 ) ;
#173 = PLANE ( 'NONE', #169 ) ;
#174 = ADVANCED_FACE ( 'NONE', ( #168 ), #173, .T. ) ;
#175 = CARTESIAN_POINT ( 'NONE', ( 20.000000, 0.000000, -20.000000 ) ) ;
#176 = VERTEX_POINT ( 'NONE', #175 ) ;
#177 = CARTESIAN_POINT ( 'NONE', ( 20.000000, 40.000000, -20.000000 ) ) ;
#178 = VERTEX_POINT ( 'NONE', #177 ) ;
#179 = CARTESIAN_POINT ( 'NONE', ( 20.000000, 40.000000, 20.000000 ) ) ;
#180 = VERTEX_POINT ( 'NONE', #179 ) ;
#183 = DIRECTION ( 'NONE', ( 1.000000, 0.000000, 0.000000 ) ) ;
#182 = VECTOR ( 'NONE', #183, 1.0 ) ;
#181 = LINE ( 'NONE', #175, #182 ) ;
#184 = EDGE_CURVE ( 'NONE', #176, #178, #181, .T. ) ;
#185 = ORIENTED_EDGE ( 'NONE', *, *, #184, .T. ) ;
#188 = DIRECTION ( 'NONE', ( 1.000000, 0.000000, 0.000000 ) ) ;
#187 = VECTOR ( 'NONE', #188, 1.0 ) ;
#186 = LINE ( 'NONE', #177, #187 ) ;
#189 = EDGE_CURVE ( 'NONE', #178, #180, #186, .T. ) ;
#190 = ORIENTED_EDGE ( 'NONE', *, *, #189, .T. ) ;
#193 = DIRECTION ( 'NONE', ( 1.000000, 0.000000, 0.000000 ) ) ;
#192 = VECTOR ( 'NONE', #193, 1.0 ) ;
#191 = LINE ( 'NONE', #179, #192 ) ;
#194 = EDGE_CURVE ( 'NONE', #180, #176, #191, .T. ) ;
#195 = ORIENTED_EDGE ( 'NONE', *, *, #194, .T. ) ;
#196 = EDGE_LOOP ( 'NONE', ( #185, #190, #195 ) ) ;
#197 = FACE_OUTER_BOUND ( 'NONE', #196, .T. ) ;
#199 = CARTESIAN_POINT ( 'NONE', ( 20.000000, 0.000000, -20.000000 ) ) ;
#200 = DIRECTION ( 'NONE', ( 0.000000, 0.000000, 1.000000 ) ) ;
#201 = DIRECTION ( 'NONE', ( 1.000000, 0.000000, 0.000000 ) ) ;
#198 = AXIS2_PLACEMENT_3D ( 'NONE', #199, #200, #201 ) ;
#202 = PLANE ( 'NONE', #198 ) ;
#203 = ADVANCED_FACE ( 'NONE', ( #197 ), #202, .T. ) ;
#204 = CARTESIAN_POINT ( 'NONE', ( 20.000000, 0.000000, -20.000000 ) ) ;
#205 = VERTEX_POINT ( 'NONE', #204 ) ;
#206 = CARTESIAN_POINT ( 'NONE', ( 20.000000, 40.000000, 20.000000 ) ) ;
#207 = VERTEX_POINT ( 'NONE', #206 ) ;
#208 = CARTESIAN_POINT ( 'NONE', ( 20.000000, 0.000000, 20.000000 ) ) ;
#209 = VERTEX_POINT ( 'NONE', #208 ) ;
#212 = DIRECTION ( 'NONE', ( 1.000000, 0.000000, 0.000000 ) ) ;
#211 = VECTOR ( 'NONE', #212, 1.0 ) ;
#210 = LINE ( 'NONE', #204, #211 ) ;
#213 = EDGE_CURVE ( 'NONE', #205, #207, #210, .T. ) ;
#214 = ORIENTED_EDGE ( 'NONE', *, *, #213, .T. ) ;
#217 = DIRECTION ( 'NONE', ( 1.000000, 0.000000, 0.000000 ) ) ;
#216 = VECTOR ( 'NONE', #217, 1.0 ) ;
#215 = LINE ( 'NONE', #206, #216 ) ;
#218 = EDGE_CURVE ( 'NONE', #207, #209, #215, .T. ) ;
#219 = ORIENTED_EDGE ( 'NONE', *, *, #218, .T. ) ;
#222 = DIRECTION ( 'NONE', ( 1.000000, 0.000000, 0.000000 ) ) ;
#221 = VECTOR ( 'NONE', #222, 1.0 ) ;
#220 = LINE ( 'NONE', #208, #221 ) ;
#223 = EDGE_CURVE ( 'NONE', #209, #205, #220, .T. ) ;
#224 = ORIENTED_EDGE ( 'NONE', *, *, #223, .T. ) ;
#225 = EDGE_LOOP ( 'NONE', ( #214, #219, #224 ) ) ;
#226 = FACE_OUTER_BOUND ( 'NONE', #225, .T. ) ;
#228 = CARTESIAN_POINT ( 'NONE', ( 20.000000, 0.000000, -20.000000 ) ) ;
#229 = DIRECTION ( 'NONE', ( 0.000000, 0.000000, 1.000000 ) ) ;
#230 = DIRECTION ( 'NONE', ( 1.000000, 0.000000, 0.000000 ) ) ;
#227 = AXIS2_PLACEMENT_3D ( 'NONE', #228, #229, #230 ) ;
#231 = PLANE ( 'NONE', #227 ) ;
#232 = ADVANCED_FACE ( 'NONE', ( #226 ), #231, .T. ) ;
#233 = CARTESIAN_POINT ( 'NONE', ( -20.000000, 0.000000, -20.000000 ) ) ;
#234 = VERTEX_POINT ( 'NONE', #233 ) ;
#235 = CARTESIAN_POINT ( 'NONE', ( -20.000000, 40.000000, -20.000000 ) ) ;
#236 = VERTEX_POINT ( 'NONE', #235 ) ;
#237 = CARTESIAN_POINT ( 'NONE', ( 20.000000, 40.000000, -20.000000 ) ) ;
#238 = VERTEX_POINT ( 'NONE', #237 ) ;
#241 = DIRECTION ( 'NONE', ( 1.000000, 0.000000, 0.000000 ) ) ;
#240 = VECTOR ( 'NONE', #241, 1.0 ) ;
#239 = LINE ( 'NONE', #233, #240 ) ;
#242 = EDGE_CURVE ( 'NONE', #234, #236, #239, .T. ) ;
#243 = ORIENTED_EDGE ( 'NONE', *, *, #242, .T. ) ;
#246 = DIRECTION ( 'NONE', ( 1.000000, 0.000000, 0.000000 ) ) ;
#245 = VECTOR ( 'NONE', #246, 1.0 ) ;
#244 = LINE ( 'NONE', #235, #245 ) ;
#247 = EDGE_CURVE ( 'NONE', #236, #238, #244, .T. ) ;
#248 = ORIENTED_EDGE ( 'NONE', *, *, #247, .T. ) ;
#251 = DIRECTION ( 'NONE', ( 1.000000, 0.000000, 0.000000 ) ) ;
#250 = VECTOR ( 'NONE', #251, 1.0 ) ;
#249 = LINE ( 'NONE', #237, #250 ) ;
#252 = EDGE_CURVE ( 'NONE', #238, #234, #249, .T. ) ;
#253 = ORIENTED_EDGE ( 'NONE', *, *, #252, .T. ) ;
#254 = EDGE_LOOP ( 'NONE', ( #243, #248, #253 ) ) ;
#255 = FACE_OUTER_BOUND ( 'NONE', #254, .T. ) ;
#257 = CARTESIAN_POINT ( 'NONE', ( -20.000000, 0.000000, -20.000000 ) ) ;
#258 = DIRECTION ( 'NONE', ( 0.000000, 0.000000, 1.000000 ) ) ;
#259 = DIRECTION ( 'NONE', ( 1.000000, 0.000000, 0.000000 ) ) ;
#256 = AXIS2_PLACEMENT_3D ( 'NONE', #257, #258, #259 ) ;
#260 = PLANE ( 'NONE', #256 ) ;
#261 = ADVANCED_FACE ( 'NONE', ( #255 ), #260, .T. ) ;
#262 = CARTESIAN_POINT ( 'NONE', ( -20.000000, 0.000000, -20.000000 ) ) ;
#263 = VERTEX_POINT ( 'NONE', #262 ) ;
#264 = CARTESIAN_POINT ( 'NONE', ( 20.000000, 40.000000, -20.000000 ) ) ;
#265 = VERTEX_POINT ( 'NONE', #264 ) ;
#266 = CARTESIAN_POINT ( 'NONE', ( 20.000000, 0.000000, -20.000000 ) ) ;
#267 = VERTEX_POINT ( 'NONE', #266 ) ;
#270 = DIRECTION ( 'NONE', ( 1.000000, 0.000000, 0.000000 ) ) ;
#269 = VECTOR ( 'NONE', #270, 1.0 ) ;
#268 = LINE ( 'NONE', #262, #269 ) ;
#271 = EDGE_CURVE ( 'NONE', #263, #265, #268, .T. ) ;
#272 = ORIENTED_EDGE ( 'NONE', *, *, #271, .T. ) ;
#275 = DIRECTION ( 'NONE', ( 1.000000, 0.000000, 0.000000 ) ) ;
#274 = VECTOR ( 'NONE', #275, 1.0 ) ;
#273 = LINE ( 'NONE', #264, #274 ) ;
#276 = EDGE_CURVE ( 'NONE', #265, #267, #273, .T. ) ;
#277 = ORIENTED_EDGE ( 'NONE', *, *, #276, .T. ) ;
#280 = DIRECTION ( 'NONE', ( 1.000000, 0.000000, 0.000000 ) ) ;
#279 = VECTOR ( 'NONE', #280, 1.0 ) ;
#278 = LINE ( 'NONE', #266, #279 ) ;
#281 = EDGE_CURVE ( 'NONE', #267, #263, #278, .T. ) ;
#282 = ORIENTED_EDGE ( 'NONE', *, *, #281, .T. ) ;
#283 = EDGE_LOOP ( 'NONE', ( #272, #277, #282 ) ) ;
#284 = FACE_OUTER_BOUND ( 'NONE', #283, .T. ) ;
#286 = CARTESIAN_POINT ( 'NONE', ( -20.000000, 0.000000, -20.000000 ) ) ;
#287 = DIRECTION ( 'NONE', ( 0.000000, 0.000000, 1.000000 ) ) ;
#288 = DIRECTION ( 'NONE', ( 1.000000, 0.000000, 0.000000 ) ) ;
#285 = AXIS2_PLACEMENT_3D ( 'NONE', #286, #287, #288 ) ;
#289 = PLANE ( 'NONE', #285 ) ;
#290 = ADVANCED_FACE ( 'NONE', ( #284 ), #289, .T. ) ;
#291 = CARTESIAN_POINT ( 'NONE', ( -20.000000, 0.000000, 20.000000 ) ) ;
#292 = VERTEX_POINT ( 'NONE', #291 ) ;
#293 = CARTESIAN_POINT ( 'NONE', ( 20.000000, 0.000000, 20.000000 ) ) ;
#294 = VERTEX_POINT ( 'NONE', #293 ) ;
#295 = CARTESIAN_POINT ( 'NONE', ( 20.000000, 40.000000, 20.000000 ) ) ;
#296 = VERTEX_POINT ( 'NONE', #295 ) ;
#299 = DIRECTION ( 'NONE', ( 1.000000, 0.000000, 0.000000 ) ) ;
#298 = VECTOR ( 'NONE', #299, 1.0 ) ;
#297 = LINE ( 'NONE', #291, #298 ) ;
#300 = EDGE_CURVE ( 'NONE', #292, #294, #297, .T. ) ;
#301 = ORIENTED_EDGE ( 'NONE', *, *, #300, .T. ) ;
#304 = DIRECTION ( 'NONE', ( 1.000000, 0.000000, 0.000000 ) ) ;
#303 = VECTOR ( 'NONE', #304, 1.0 ) ;
#302 = LINE ( 'NONE', #293, #303 ) ;
#305 = EDGE_CURVE ( 'NONE', #294, #296, #302, .T. ) ;
#306 = ORIENTED_EDGE ( 'NONE', *, *, #305, .T. ) ;
#309 = DIRECTION ( 'NONE', ( 1.000000, 0.000000, 0.000000 ) ) ;
#308 = VECTOR ( 'NONE', #309, 1.0 ) ;
#307 = LINE ( 'NONE', #295, #308 ) ;
#310 = EDGE_CURVE ( 'NONE', #296, #292, #307, .T. ) ;
#311 = ORIENTED_EDGE ( 'NONE', *, *, #310, .T. ) ;
#312 = EDGE_LOOP ( 'NONE', ( #301, #306, #311 ) ) ;
#313 = FACE_OUTER_BOUND ( 'NONE', #312, .T. ) ;
#315 = CARTESIAN_POINT ( 'NONE', ( -20.000000, 0.000000, 20.000000 ) ) ;
#316 = DIRECTION ( 'NONE', ( 0.000000, 0.000000, 1.000000 ) ) ;
#317 = DIRECTION ( 'NONE', ( 1.000000, 0.000000, 0.000000 ) ) ;
#314 = AXIS2_PLACEMENT_3D ( 'NONE', #315, #316, #317 ) ;
#318 = PLANE ( 'NONE', #314 ) ;
#319 = ADVANCED_FACE ( 'NONE', ( #313 ), #318, .T. ) ;
#320 = CARTESIAN_POINT ( 'NONE', ( -20.000000, 0.000000, 20.000000 ) ) ;
#321 = VERTEX_POINT ( 'NONE', #320 ) ;
#322 = CARTESIAN_POINT ( 'NONE', ( 20.000000, 40.000000, 20.000000 ) ) ;
#323 = VERTEX_POINT ( 'NONE', #322 ) ;
#324 = CARTESIAN_POINT ( 'NONE', ( -20.000000, 40.000000, 20.000000 ) ) ;
#325 = VERTEX_POINT ( 'NONE', #324 ) ;
#328 = DIRECTION ( 'NONE', ( 1.000000, 0.000000, 0.000000 ) ) ;
#327 = VECTOR ( 'NONE', #328, 1.0 ) ;
#326 = LINE ( 'NONE', #320, #327 ) ;
#329 = EDGE_CURVE ( 'NONE', #321, #323, #326, .T. ) ;
#330 = ORIENTED_EDGE ( 'NONE', *, *, #329, .T. ) ;
#333 = DIRECTION ( 'NONE', ( 1.000000, 0.000000, 0.000000 ) ) ;
#332 = VECTOR ( 'NONE', #333, 1.0 ) ;
#331 = LINE ( 'NONE', #322, #332 ) ;
#334 = EDGE_CURVE ( 'NONE', #323, #325, #331, .T. ) ;
#335 = ORIENTED_EDGE ( 'NONE', *, *, #334, .T. ) ;
#338 = DIRECTION ( 'NONE', ( 1.000000, 0.000000, 0.000000 ) ) ;
#337 = VECTOR ( 'NONE', #338, 1.0 ) ;
#336 = LINE ( 'NONE', #324, #337 ) ;
#339 = EDGE_CURVE ( 'NONE', #325, #321, #336, .T. ) ;
#340 = ORIENTED_EDGE ( 'NONE', *, *, #339, .T. ) ;
#341 = EDGE_LOOP ( 'NONE', ( #330, #335, #340 ) ) ;
#342 = FACE_OUTER_BOUND ( 'NONE', #341, .T. ) ;
#344 = CARTESIAN_POINT ( 'NONE', ( -20.000000, 0.000000, 20.000000 ) ) ;
#345 = DIRECTION ( 'NONE', ( 0.000000, 0.000000, 1.000000 ) ) ;
#346 = DIRECTION ( 'NONE', ( 1.000000, 0.000000, 0.000000 ) ) ;
#343 = AXIS2_PLACEMENT_3D ( 'NONE', #344, #345, #346 ) ;
#347 = PLANE ( 'NONE', #343 ) ;
#348 = ADVANCED_FACE ( 'NONE', ( #342 ), #347, .T. ) ;
#349 = CLOSED_SHELL ( 'cube', ( #29, #58, #87, #116, #145, #174, #203, #232, #261, #290, #319, #348 ) ) ;
#350 = MANIFOLD_SOLID_BREP ( 'cube', #349 ) ;
ENDSEC;
END-ISO-10303-21;
