solid cube
  facet normal 0.000000 -1.000000 0.000000
    outer loop
      vertex -20.0000 0.0000 -20.0000
      vertex 20.0000 0.0000 -20.0000
      vertex 20.0000 0.0000 20.0000
    endloop
  endfacet
  facet normal 0.000000 -1.000000 0.000000
    outer loop
      vertex -20.0000 0.0000 -20.0000
      vertex 20.0000 0.0000 20.0000
      vertex -20.0000 0.0000 20.0000
    endloop
  endfacet
  facet normal 0.000000 1.000000 0.000000
    outer loop
      vertex -20.0000 40.0000 -20.0000
      vertex -20.0000 40.0000 20.0000
      vertex 20.0000 40.0000 20.0000
    endloop
  endfacet
  facet normal 0.000000 1.000000 0.000000
    outer loop
      vertex -20.0000 40.0000 -20.0000
      vertex 20.0000 40.0000 20.0000
      vertex 20.0000 40.0000 -20.0000
    endloop
  endfacet
  facet normal -1.000000 0.000000 0.000000
    outer loop
      vertex -20.0000 0.0000 -20.0000
      vertex -20.0000 0.0000 20.0000
      vertex -20.0000 40.0000 20.0000
    endloop
  endfacet
  facet normal -1.000000 0.000000 0.000000
    outer loop
      vertex -20.0000 0.0000 -20.0000
      vertex -20.0000 40.0000 20.0000
      vertex -20.0000 40.0000 -20.0000
    endloop
  endfacet
  facet normal 1.000000 0.000000 0.000000
    outer loop
      vertex 20.0000 0.0000 -20.0000
      vertex 20.0000 40.0000 -20.0000
      vertex 20.0000 40.0000 20.0000
    endloop
  endfacet
  facet normal 1.000000 0.000000 0.000000
    outer loop
      vertex 20.0000 0.0000 -20.0000
      vertex 20.0000 40.0000 20.0000
      vertex 20.0000 0.0000 20.0000
    endloop
  endfacet
  facet normal 0.000000 0.000000 -1.000000
    outer loop
      vertex -20.0000 0.0000 -20.0000
      vertex -20.0000 40.0000 -20.0000
      vertex 20.0000 40.0000 -20.0000
    endloop
  endfacet
  facet normal 0.000000 0.000000 -1.000000
    outer loop
      vertex -20.0000 0.0000 -20.0000
      vertex 20.0000 40.0000 -20.0000
      vertex 20.0000 0.0000 -20.0000
    endloop
  endfacet
  facet normal 0.000000 0.000000 1.000000
    outer loop
      vertex -20.0000 0.0000 20.0000
      vertex 20.0000 0.0000 20.0000
      vertex 20.0000 40.0000 20.0000
    endloop
  endfacet
  facet normal 0.000000 0.000000 1.000000
    outer loop
      vertex -20.0000 0.0000 20.0000
      vertex 20.0000 40.0000 20.0000
      vertex -20.0000 40.0000 20.0000
    endloop
  endfacet
endsolid cube
