0
SECTION
2
ENTITIES
0
LINE
8
OUTLINE
10
-70
20
-40
11
70
21
-40
0
LINE
8
OUTLINE
10
70
20
-40
11
80
21
-30
0
LINE
8
OUTLINE
10
80
20
-30
11
80
21
30
0
LINE
8
OUTLINE
10
80
20
30
11
70
21
40
0
LINE
8
OUTLINE
10
70
20
40
11
-70
21
40
0
LINE
8
OUTLINE
10
-70
20
40
11
-80
21
30
0
LINE
8
OUTLINE
10
-80
20
30
11
-80
21
-30
0
LINE
8
OUTLINE
10
-80
20
-30
11
-70
21
-40
0
LINE
8
WINDOW
10
-45
20
-20
11
45
21
-20
0
LINE
8
WINDOW
10
45
20
-20
11
45
21
20
0
LINE
8
WINDOW
10
45
20
20
11
-45
21
20
0
LINE
8
WINDOW
10
-45
20
20
11
-45
21
-20
0
LINE
8
SLOT
10
-15
20
-6
11
15
21
-6
0
LINE
8
SLOT
10
15
20
-6
11
15
21
6
0
LINE
8
SLOT
10
15
20
6
11
-15
21
6
0
LINE
8
SLOT
10
-15
20
6
11
-15
21
-6
0
CIRCLE
8
HOLES
10
-60
20
-30
40
5
0
CIRCLE
8
HOLES
10
0
20
-30
40
5
0
CIRCLE
8
HOLES
10
60
20
-30
40
5
0
CIRCLE
8
HOLES
10
-60
20
30
40
5
0
CIRCLE
8
HOLES
10
0
20
30
40
5
0
CIRCLE
8
HOLES
10
60
20
30
40
5
0
LINE
8
CENTRE
10
-8
20
0
11
8
21
0
0
LINE
8
CENTRE
10
0
20
-8
11
0
21
8
0
ENDSEC
0
EOF
