MyCAD IGES export                                                       S      1
1H,,1H;,4HMyCAD,9Hmycad.igs,5HMyCAD,5HMyCAD,32,38,6,308,15,4HPART,1.0,2,G      1
2HMM,1,0.08,15H20260101000000,1E-7,1000.0,5HMyCAD,5HMyCAD,11,0,15H202601G      2
01000000,;                                                              G      3
     110       1       0       0       0       0       0       000000000D      1
     110       0       0       1       0                               0D      2
     110       2       0       0       0       0       0       000000000D      3
     110       0       0       1       0                               0D      4
     110       3       0       0       0       0       0       000000000D      5
     110       0       0       1       0                               0D      6
     110       4       0       0       0       0       0       000000000D      7
     110       0       0       1       0                               0D      8
     110       5       0       0       0       0       0       000000000D      9
     110       0       0       1       0                               0D     10
     110       6       0       0       0       0       0       000000000D     11
     110       0       0       1       0                               0D     12
     110       7       0       0       0       0       0       000000000D     13
     110       0       0       1       0                               0D     14
     110       8       0       0       0       0       0       000000000D     15
     110       0       0       1       0                               0D     16
     110       9       0       0       0       0       0       000000000D     17
     110       0       0       1       0                               0D     18
     110      10       0       0       0       0       0       000000000D     19
     110       0       0       1       0                               0D     20
     110      11       0       0       0       0       0       000000000D     21
     110       0       0       1       0                               0D     22
     110      12       0       0       0       0       0       000000000D     23
     110       0       0       1       0                               0D     24
     110      13       0       0       0       0       0       000000000D     25
     110       0       0       1       0                               0D     26
     110      14       0       0       0       0       0       000000000D     27
     110       0       0       1       0                               0D     28
     110      15       0       0       0       0       0       000000000D     29
     110       0       0       1       0                               0D     30
     110      16       0       0       0       0       0       000000000D     31
     110       0       0       1       0                               0D     32
     110      17       0       0       0       0       0       000000000D     33
     110       0       0       1       0                               0D     34
     110      18       0       0       0       0       0       000000000D     35
     110       0       0       1       0                               0D     36
     110      19       0       0       0       0       0       000000000D     37
     110       0       0       1       0                               0D     38
     110      20       0       0       0       0       0       000000000D     39
     110       0       0       1       0                               0D     40
     110      21       0       0       0       0       0       000000000D     41
     110       0       0       1       0                               0D     42
     110      22       0       0       0       0       0       000000000D     43
     110       0       0       1       0                               0D     44
     110      23       0       0       0       0       0       000000000D     45
     110       0       0       1       0                               0D     46
     110      24       0       0       0       0       0       000000000D     47
     110       0       0       1       0                               0D     48
     110      25       0       0       0       0       0       000000000D     49
     110       0       0       1       0                               0D     50
     110      26       0       0       0       0       0       000000000D     51
     110       0       0       1       0                               0D     52
     110      27       0       0       0       0       0       000000000D     53
     110       0       0       1       0                               0D     54
     110      28       0       0       0       0       0       000000000D     55
     110       0       0       1       0                               0D     56
     110      29       0       0       0       0       0       000000000D     57
     110       0       0       1       0                               0D     58
     110      30       0       0       0       0       0       000000000D     59
     110       0       0       1       0                               0D     60
     110      31       0       0       0       0       0       000000000D     61
     110       0       0       1       0                               0D     62
     110      32       0       0       0       0       0       000000000D     63
     110       0       0       1       0                               0D     64
     110      33       0       0       0       0       0       000000000D     65
     110       0       0       1       0                               0D     66
     110      34       0       0       0       0       0       000000000D     67
     110       0       0       1       0                               0D     68
     110      35       0       0       0       0       0       000000000D     69
     110       0       0       1       0                               0D     70
     110      36       0       0       0       0       0       000000000D     71
     110       0       0       1       0                               0D     72
     110      37       0       0       0       0       0       000000000D     73
     110       0       0       1       0                               0D     74
     110      38       0       0       0       0       0       000000000D     75
     110       0       0       1       0                               0D     76
     110      39       0       0       0       0       0       000000000D     77
     110       0       0       1       0                               0D     78
     110      40       0       0       0       0       0       000000000D     79
     110       0       0       1       0                               0D     80
     110      41       0       0       0       0       0       000000000D     81
     110       0       0       1       0                               0D     82
     110      42       0       0       0       0       0       000000000D     83
     110       0       0       1       0                               0D     84
     110      43       0       0       0       0       0       000000000D     85
     110       0       0       1       0                               0D     86
     110      44       0       0       0       0       0       000000000D     87
     110       0       0       1       0                               0D     88
     110      45       0       0       0       0       0       000000000D     89
     110       0       0       1       0                               0D     90
     110      46       0       0       0       0       0       000000000D     91
     110       0       0       1       0                               0D     92
     110      47       0       0       0       0       0       000000000D     93
     110       0       0       1       0                               0D     94
     110      48       0       0       0       0       0       000000000D     95
     110       0       0       1       0                               0D     96
     110      49       0       0       0       0       0       000000000D     97
     110       0       0       1       0                               0D     98
     110      50       0       0       0       0       0       000000000D     99
     110       0       0       1       0                               0D    100
     110      51       0       0       0       0       0       000000000D    101
     110       0       0       1       0                               0D    102
     110      52       0       0       0       0       0       000000000D    103
     110       0       0       1       0                               0D    104
     110      53       0       0       0       0       0       000000000D    105
     110       0       0       1       0                               0D    106
     110      54       0       0       0       0       0       000000000D    107
     110       0       0       1       0                               0D    108
     110      55       0       0       0       0       0       000000000D    109
     110       0       0       1       0                               0D    110
     110      56       0       0       0       0       0       000000000D    111
     110       0       0       1       0                               0D    112
110,-45,0,-30,45,0,-30;                                                1P      1
110,45,0,-30,45,0,30;                                                  3P      2
110,45,0,30,-45,0,30;                                                  5P      3
110,-45,0,30,-45,0,-30;                                                7P      4
110,-10,0,-8,10,0,-8;                                                  9P      5
110,10,0,-8,10,0,8;                                                   11P      6
110,10,0,8,-10,0,8;                                                   13P      7
110,-10,0,8,-10,0,-8;                                                 15P      8
110,-25,0,-18,-25.669873,0,-15.5;                                     17P      9
110,-25.669873,0,-15.5,-27.5,0,-13.669873;                            19P     10
110,-27.5,0,-13.669873,-30,0,-13;                                     21P     11
110,-30,0,-13,-32.5,0,-13.669873;                                     23P     12
110,-32.5,0,-13.669873,-34.330127,0,-15.5;                            25P     13
110,-34.330127,0,-15.5,-35,0,-18;                                     27P     14
110,-35,0,-18,-34.330127,0,-20.5;                                     29P     15
110,-34.330127,0,-20.5,-32.5,0,-22.330127;                            31P     16
110,-32.5,0,-22.330127,-30,0,-23;                                     33P     17
110,-30,0,-23,-27.5,0,-22.330127;                                     35P     18
110,-27.5,0,-22.330127,-25.669873,0,-20.5;                            37P     19
110,-25.669873,0,-20.5,-25,0,-18;                                     39P     20
110,35,0,-18,34.330127,0,-15.5;                                       41P     21
110,34.330127,0,-15.5,32.5,0,-13.669873;                              43P     22
110,32.5,0,-13.669873,30,0,-13;                                       45P     23
110,30,0,-13,27.5,0,-13.669873;                                       47P     24
110,27.5,0,-13.669873,25.669873,0,-15.5;                              49P     25
110,25.669873,0,-15.5,25,0,-18;                                       51P     26
110,25,0,-18,25.669873,0,-20.5;                                       53P     27
110,25.669873,0,-20.5,27.5,0,-22.330127;                              55P     28
110,27.5,0,-22.330127,30,0,-23;                                       57P     29
110,30,0,-23,32.5,0,-22.330127;                                       59P     30
110,32.5,0,-22.330127,34.330127,0,-20.5;                              61P     31
110,34.330127,0,-20.5,35,0,-18;                                       63P     32
110,-25,0,18,-25.669873,0,20.5;                                       65P     33
110,-25.669873,0,20.5,-27.5,0,22.330127;                              67P     34
110,-27.5,0,22.330127,-30,0,23;                                       69P     35
110,-30,0,23,-32.5,0,22.330127;                                       71P     36
110,-32.5,0,22.330127,-34.330127,0,20.5;                              73P     37
110,-34.330127,0,20.5,-35,0,18;                                       75P     38
110,-35,0,18,-34.330127,0,15.5;                                       77P     39
110,-34.330127,0,15.5,-32.5,0,13.669873;                              79P     40
110,-32.5,0,13.669873,-30,0,13;                                       81P     41
110,-30,0,13,-27.5,0,13.669873;                                       83P     42
110,-27.5,0,13.669873,-25.669873,0,15.5;                              85P     43
110,-25.669873,0,15.5,-25,0,18;                                       87P     44
110,35,0,18,34.330127,0,20.5;                                         89P     45
110,34.330127,0,20.5,32.5,0,22.330127;                                91P     46
110,32.5,0,22.330127,30,0,23;                                         93P     47
110,30,0,23,27.5,0,22.330127;                                         95P     48
110,27.5,0,22.330127,25.669873,0,20.5;                                97P     49
110,25.669873,0,20.5,25,0,18;                                         99P     50
110,25,0,18,25.669873,0,15.5;                                        101P     51
110,25.669873,0,15.5,27.5,0,13.669873;                               103P     52
110,27.5,0,13.669873,30,0,13;                                        105P     53
110,30,0,13,32.5,0,13.669873;                                        107P     54
110,32.5,0,13.669873,34.330127,0,15.5;                               109P     55
110,34.330127,0,15.5,35,0,18;                                        111P     56
S     1G     3D   112P    56                                            T      1
