MyCAD IGES export                                                       S      1
1H,,1H;,4HMyCAD,9Hmycad.igs,5HMyCAD,5HMyCAD,32,38,6,308,15,4HPART,1.0,2,G      1
2HMM,1,0.08,15H20260926000000,1E-7,1000.0,5HMyCAD,5HMyCAD,11,0,15H202609G      2
26000000,;                                                              G      3
     110       1       0       0       0       0       0       000000000D      1
     110       0       0       1       0                               0D      2
     110       2       0       0       0       0       0       000000000D      3
     110       0       0       1       0                               0D      4
     110       3       0       0       0       0       0       000000000D      5
     110       0       0       1       0                               0D      6
     110       4       0       0       0       0       0       000000000D      7
     110       0       0       1       0                               0D      8
110,0,0,0,60,0,0;                                                      1P      1
110,60,0,0,60,0,40;                                                    3P      2
110,60,0,40,0,0,40;                                                    5P      3
110,0,0,40,0,0,0;                                                      7P      4
S     1G     3D     8P     4                                            T      1
