OFF
18 6 0
-25.000000 0.000000 -25.000000
25.000000 0.000000 -25.000000
0.000000 40.000000 0.000000
25.000000 0.000000 -25.000000
25.000000 0.000000 25.000000
0.000000 40.000000 0.000000
25.000000 0.000000 25.000000
-25.000000 0.000000 25.000000
0.000000 40.000000 0.000000
-25.000000 0.000000 25.000000
-25.000000 0.000000 -25.000000
0.000000 40.000000 0.000000
-25.000000 0.000000 -25.000000
25.000000 0.000000 25.000000
25.000000 0.000000 -25.000000
-25.000000 0.000000 -25.000000
-25.000000 0.000000 25.000000
25.000000 0.000000 25.000000
3 0 1 2
3 3 4 5
3 6 7 8
3 9 10 11
3 12 13 14
3 15 16 17
