  0
SECTION
  2
HEADER
  9
$INSUNITS
 70
     4
  9
$ACADVER
  1
AC1015
  0
ENDSEC
  0
SECTION
  2
TABLES
  0
TABLE
  2
LAYER
 70
     5
  0
LAYER
  2
WALLS
 70
     0
 62
     7
  6
CONTINUOUS
  0
LAYER
  2
DOORS
 70
     0
 62
     3
  6
CONTINUOUS
  0
LAYER
  2
WINDOWS
 70
     0
 62
     5
  6
CONTINUOUS
  0
LAYER
  2
ROOMS
 70
     0
 62
     2
  6
CONTINUOUS
  0
LAYER
  2
DIMENSIONS
 70
     0
 62
     1
  6
CONTINUOUS
  0
ENDTAB
  0
ENDSEC
  0
SECTION
  2
ENTITIES
  0
COMMENT
  1
=== 외벽 (Outer Walls) ===
  0
LWPOLYLINE
  8
WALLS
 90
     4
 70
     1
 10
0.0
 20
0.0
 10
12000.0
 20
0.0
 10
12000.0
 20
9000.0
 10
0.0
 20
9000.0
  0
COMMENT
  1
=== 내벽 - 거실/침실 구분 ===
  0
LINE
  8
WALLS
 10
5000.0
 20
0.0
 11
5000.0
 21
6000.0
  0
COMMENT
  1
=== 내벽 - 주방/거실 구분 ===
  0
LINE
  8
WALLS
 10
5000.0
 20
6000.0
 11
12000.0
 21
6000.0
  0
COMMENT
  1
=== 내벽 - 침실1/침실2 구분 ===
  0
LINE
  8
WALLS
 10
0.0
 20
4500.0
 11
5000.0
 21
4500.0
  0
COMMENT
  1
=== 욕실 벽 ===
  0
LWPOLYLINE
  8
WALLS
 90
     4
 70
     1
 10
8000.0
 20
6000.0
 10
12000.0
 20
6000.0
 10
12000.0
 20
9000.0
 10
8000.0
 20
9000.0
  0
COMMENT
  1
=== 화장실 구분 벽 ===
  0
LINE
  8
WALLS
 10
8000.0
 20
6000.0
 11
8000.0
 21
9000.0
  0
COMMENT
  1
=== 현관 벽 ===
  0
LINE
  8
WALLS
 10
0.0
 20
7500.0
 11
2500.0
 21
7500.0
  0
LINE
  8
WALLS
 10
2500.0
 20
7500.0
 11
2500.0
 21
9000.0
  0
COMMENT
  1
=== 문 (Doors) ===
  0
LINE
  8
DOORS
 10
900.0
 20
0.0
 11
1700.0
 21
0.0
  0
LINE
  8
DOORS
 10
5000.0
 20
1800.0
 11
5000.0
 21
2600.0
  0
LINE
  8
DOORS
 10
5000.0
 20
5000.0
 11
5000.0
 21
5800.0
  0
LINE
  8
DOORS
 10
8000.0
 20
7500.0
 11
8000.0
 21
8300.0
  0
LINE
  8
DOORS
 10
1500.0
 20
7500.0
 11
2300.0
 21
7500.0
  0
COMMENT
  1
=== 창문 (Windows) ===
  0
LINE
  8
WINDOWS
 10
3000.0
 20
0.0
 11
5000.0
 21
0.0
  0
LINE
  8
WINDOWS
 10
7000.0
 20
0.0
 11
9000.0
 21
0.0
  0
LINE
  8
WINDOWS
 10
0.0
 20
1000.0
 11
0.0
 21
3000.0
  0
LINE
  8
WINDOWS
 10
0.0
 20
6000.0
 11
0.0
 21
7500.0
  0
LINE
  8
WINDOWS
 10
12000.0
 20
1000.0
 11
12000.0
 21
4000.0
  0
LINE
  8
WINDOWS
 10
6000.0
 20
9000.0
 11
8000.0
 21
9000.0
  0
ENDSEC
  0
EOF
